<svg xmlns="http://www.w3.org/2000/svg" width="900" height="420" viewBox="0 0 900 420" font-family="Vazirmatn, Tahoma, sans-serif">
<rect x="0" y="0" width="900" height="420" rx="0" fill="#F2F5FF"/>
<rect x="0" y="0" width="900" height="10" rx="0" fill="#2D3A8C"/>
<text x="870" y="56" font-family="Vazirmatn, Tahoma, sans-serif" font-size="27" fill="#1E2761" font-weight="700" text-anchor="start" direction="rtl">مثال حل‌شده: ۲، ۴، ۶، ...</text>
<text x="870" y="84" font-family="Vazirmatn, Tahoma, sans-serif" font-size="17" fill="#8C97AB" font-weight="400" text-anchor="start" direction="rtl">به فاصله‌ی بین عددها نگاه کن</text>
<rect x="700" y="180" width="120" height="120" rx="16" fill="#FFFFFF" stroke="#D7DEF2" stroke-width="2"/>
<text x="760" y="254.4" font-family="Vazirmatn, Tahoma, sans-serif" font-size="40" fill="#06BEB6" font-weight="700" text-anchor="middle" direction="rtl">۲</text>
<rect x="540" y="180" width="120" height="120" rx="16" fill="#FFFFFF" stroke="#D7DEF2" stroke-width="2"/>
<text x="600" y="254.4" font-family="Vazirmatn, Tahoma, sans-serif" font-size="40" fill="#FFC93C" font-weight="700" text-anchor="middle" direction="rtl">۴</text>
<rect x="380" y="180" width="120" height="120" rx="16" fill="#FFFFFF" stroke="#D7DEF2" stroke-width="2"/>
<text x="440" y="254.4" font-family="Vazirmatn, Tahoma, sans-serif" font-size="40" fill="#FF6B6B" font-weight="700" text-anchor="middle" direction="rtl">۶</text>
<rect x="220" y="180" width="120" height="120" rx="16" fill="#E3F4EA" stroke="#2E9E5B" stroke-width="3"/>
<text x="280" y="256" font-family="Vazirmatn, Tahoma, sans-serif" font-size="46" fill="#2E9E5B" font-weight="700" text-anchor="middle" direction="rtl">۸</text>
<path d="M 760 172 Q 680 112 608 172" fill="none" stroke="#8E7CE8" stroke-width="3" stroke-linecap="round" stroke-linejoin="round"/>
<polygon points="608,174 602,160 618,164" fill="#8E7CE8"/>
<rect x="652" y="114" width="56" height="30.4" rx="15.2" fill="#8E7CE8"/>
<text x="680" y="134.76" font-family="Vazirmatn, Tahoma, sans-serif" font-size="16" fill="#FFFFFF" font-weight="700" text-anchor="middle" direction="rtl">‎+۲</text>
<path d="M 600 172 Q 520 112 448 172" fill="none" stroke="#8E7CE8" stroke-width="3" stroke-linecap="round" stroke-linejoin="round"/>
<polygon points="448,174 442,160 458,164" fill="#8E7CE8"/>
<rect x="492" y="114" width="56" height="30.4" rx="15.2" fill="#8E7CE8"/>
<text x="520" y="134.76" font-family="Vazirmatn, Tahoma, sans-serif" font-size="16" fill="#FFFFFF" font-weight="700" text-anchor="middle" direction="rtl">‎+۲</text>
<path d="M 440 172 Q 360 112 288 172" fill="none" stroke="#8E7CE8" stroke-width="3" stroke-linecap="round" stroke-linejoin="round"/>
<polygon points="288,174 282,160 298,164" fill="#8E7CE8"/>
<rect x="332" y="114" width="56" height="30.4" rx="15.2" fill="#8E7CE8"/>
<text x="360" y="134.76" font-family="Vazirmatn, Tahoma, sans-serif" font-size="16" fill="#FFFFFF" font-weight="700" text-anchor="middle" direction="rtl">‎+۲</text>
<rect x="170" y="330" width="560" height="54" rx="27" fill="#FFFFFF" stroke="#2E9E5B" stroke-width="3"/>
<text x="450" y="364" font-family="Vazirmatn, Tahoma, sans-serif" font-size="18" fill="#3C4A5E" font-weight="600" text-anchor="middle" direction="rtl">قاعده: هر بار دو تا اضافه می‌شود ← بعدی ۸</text>
</svg>
