<svg xmlns="http://www.w3.org/2000/svg" width="900" height="444" viewBox="0 0 900 444" font-family="Vazirmatn, Tahoma, sans-serif">
<rect x="0" y="0" width="900" height="444" rx="0" fill="#F2F5FF"/>
<rect x="0" y="0" width="900" height="10" rx="0" fill="#2D3A8C"/>
<text x="870" y="56" font-family="Vazirmatn, Tahoma, sans-serif" font-size="27" fill="#1E2761" font-weight="700" text-anchor="start" direction="rtl">رطوبت خاک در چهار قطعه</text>
<rect x="454" y="104" width="416" height="48" rx="12" fill="#2D3A8C"/>
<text x="662" y="135" font-family="Vazirmatn, Tahoma, sans-serif" font-size="18" fill="#FFFFFF" font-weight="700" text-anchor="middle" direction="rtl">قطعه</text>
<rect x="30" y="104" width="416" height="48" rx="12" fill="#2D3A8C"/>
<text x="238" y="135" font-family="Vazirmatn, Tahoma, sans-serif" font-size="18" fill="#FFFFFF" font-weight="700" text-anchor="middle" direction="rtl">رطوبت خاک</text>
<rect x="454" y="160" width="416" height="58" rx="10" fill="#FFFFFF" stroke="#D7DEF2" stroke-width="1.5"/>
<text x="662" y="189" font-family="Vazirmatn, Tahoma, sans-serif" font-size="17" fill="#3C4A5E" font-weight="400" text-anchor="middle" direction="rtl">قطعه ۱</text>
<rect x="30" y="160" width="416" height="58" rx="10" fill="#FFFFFF" stroke="#D7DEF2" stroke-width="1.5"/>
<text x="238" y="189" font-family="Vazirmatn, Tahoma, sans-serif" font-size="17" fill="#3C4A5E" font-weight="400" text-anchor="middle" direction="rtl">۷۰٪</text>
<rect x="454" y="224" width="416" height="58" rx="10" fill="#F7F9FF" stroke="#D7DEF2" stroke-width="1.5"/>
<text x="662" y="253" font-family="Vazirmatn, Tahoma, sans-serif" font-size="17" fill="#3C4A5E" font-weight="400" text-anchor="middle" direction="rtl">قطعه ۲</text>
<rect x="30" y="224" width="416" height="58" rx="10" fill="#F7F9FF" stroke="#D7DEF2" stroke-width="1.5"/>
<text x="238" y="253" font-family="Vazirmatn, Tahoma, sans-serif" font-size="17" fill="#3C4A5E" font-weight="400" text-anchor="middle" direction="rtl">۶۵٪</text>
<rect x="454" y="288" width="416" height="58" rx="10" fill="#FFFFFF" stroke="#D7DEF2" stroke-width="1.5"/>
<text x="662" y="317" font-family="Vazirmatn, Tahoma, sans-serif" font-size="17" fill="#3C4A5E" font-weight="400" text-anchor="middle" direction="rtl">قطعه ۳</text>
<rect x="30" y="288" width="416" height="58" rx="10" fill="#FFF6DC" stroke="#FF6B6B" stroke-width="3"/>
<text x="238" y="317" font-family="Vazirmatn, Tahoma, sans-serif" font-size="17" fill="#3C4A5E" font-weight="600" text-anchor="middle" direction="rtl">۱۵٪</text>
<rect x="454" y="352" width="416" height="58" rx="10" fill="#F7F9FF" stroke="#D7DEF2" stroke-width="1.5"/>
<text x="662" y="381" font-family="Vazirmatn, Tahoma, sans-serif" font-size="17" fill="#3C4A5E" font-weight="400" text-anchor="middle" direction="rtl">قطعه ۴</text>
<rect x="30" y="352" width="416" height="58" rx="10" fill="#F7F9FF" stroke="#D7DEF2" stroke-width="1.5"/>
<text x="238" y="381" font-family="Vazirmatn, Tahoma, sans-serif" font-size="17" fill="#3C4A5E" font-weight="400" text-anchor="middle" direction="rtl">۷۲٪</text>
</svg>