<svg xmlns="http://www.w3.org/2000/svg" width="900" height="470" viewBox="0 0 900 470" font-family="Vazirmatn, Tahoma, sans-serif">
<rect x="0" y="0" width="900" height="470" rx="0" fill="#F2F5FF"/>
<rect x="0" y="0" width="900" height="10" rx="0" fill="#2D3A8C"/>
<text x="870" y="56" font-family="Vazirmatn, Tahoma, sans-serif" font-size="27" fill="#1E2761" font-weight="700" text-anchor="start" direction="rtl">مثال حل‌شده: از مبهم به دقیق</text>
<text x="870" y="84" font-family="Vazirmatn, Tahoma, sans-serif" font-size="17" fill="#8C97AB" font-weight="400" text-anchor="start" direction="rtl">یک تصویر، دو درخواست</text>
<rect x="30" y="125" width="840" height="141" rx="18" fill="#FFFFFF" stroke="#FF6B6B" stroke-width="3"/>
<rect x="745" y="146" width="110" height="28.5" rx="14.25" fill="#FF6B6B"/>
<text x="800" y="165.4" font-family="Vazirmatn, Tahoma, sans-serif" font-size="15" fill="#FFFFFF" font-weight="700" text-anchor="middle" direction="rtl">مبهم</text>
<rect x="470" y="177" width="300" height="57" rx="18" fill="#FFFFFF" stroke="#FF6B6B" stroke-width="3"/>
<polygon points="712,232.5 736,232.5 746.4,256" fill="#FFFFFF"/>
<line x1="736" y1="234" x2="746.4" y2="256" stroke="#FF6B6B" stroke-width="3" stroke-linecap="round"/>
<line x1="712" y1="234" x2="746.4" y2="256" stroke="#FF6B6B" stroke-width="3" stroke-linecap="round"/>
<text x="620" y="211.26" font-family="Vazirmatn, Tahoma, sans-serif" font-size="16" fill="#3C4A5E" font-weight="600" text-anchor="middle" direction="rtl">«این تصویر چیست؟»</text>
<svg x="394" y="178.7" width="52" height="41.6" viewBox="0 0 640 512" fill="#2D3A8C"><path d="M32,224H64V416H32A31.96166,31.96166,0,0,1,0,384V256A31.96166,31.96166,0,0,1,32,224Zm512-48V448a64.06328,64.06328,0,0,1-64,64H160a64.06328,64.06328,0,0,1-64-64V176a79.974,79.974,0,0,1,80-80H288V32a32,32,0,0,1,64,0V96H464A79.974,79.974,0,0,1,544,176ZM264,256a40,40,0,1,0-40,40A39.997,39.997,0,0,0,264,256Zm-8,128H192v32h64Zm96,0H288v32h64ZM456,256a40,40,0,1,0-40,40A39.997,39.997,0,0,0,456,256Zm-8,128H384v32h64ZM640,256V384a31.96166,31.96166,0,0,1-32,32H576V224h32A31.96166,31.96166,0,0,1,640,256Z"></path></svg>
<line x1="462" y1="199.5" x2="461" y2="199.5" stroke="#8C97AB" stroke-width="3" stroke-linecap="round"/>
<polygon points="450,199.5 461,206.1 461,192.9" fill="#8C97AB"/>
<line x1="392" y1="199.5" x2="391" y2="199.5" stroke="#8C97AB" stroke-width="3" stroke-linecap="round"/>
<polygon points="380,199.5 391,206.1 391,192.9" fill="#8C97AB"/>
<rect x="60" y="165" width="310" height="71" rx="14" fill="#FFE9E9"/>
<text x="215" y="188.5" font-family="Vazirmatn, Tahoma, sans-serif" font-size="15.5" fill="#3C4A5E" font-weight="600" text-anchor="middle" direction="rtl">«یک عکس از بیرون.»</text>
<text x="215" y="214.5" font-family="Vazirmatn, Tahoma, sans-serif" font-size="15.5" fill="#3C4A5E" font-weight="600" text-anchor="middle" direction="rtl">کلی و به‌دردنخور</text>
<circle cx="60" cy="165" r="17" fill="#FF6B6B"/>
<svg x="53.8641" y="156.075" width="12.2719" height="17.85" viewBox="0 0 352 512" fill="#FFFFFF"><path d="M242.72 256l100.07-100.07c12.28-12.28 12.28-32.19 0-44.48l-22.24-22.24c-12.28-12.28-32.19-12.28-44.48 0L176 189.28 75.93 89.21c-12.28-12.28-32.19-12.28-44.48 0L9.21 111.45c-12.28 12.28-12.28 32.19 0 44.48L109.28 256 9.21 356.07c-12.28 12.28-12.28 32.19 0 44.48l22.24 22.24c12.28 12.28 32.2 12.28 44.48 0L176 322.72l100.07 100.07c12.28 12.28 32.2 12.28 44.48 0l22.24-22.24c12.28-12.28 12.28-32.19 0-44.48L242.72 256z"></path></svg>
<rect x="30" y="280" width="840" height="141" rx="18" fill="#FFFFFF" stroke="#06BEB6" stroke-width="3"/>
<rect x="745" y="301" width="110" height="28.5" rx="14.25" fill="#06BEB6"/>
<text x="800" y="320.4" font-family="Vazirmatn, Tahoma, sans-serif" font-size="15" fill="#FFFFFF" font-weight="700" text-anchor="middle" direction="rtl">دقیق</text>
<rect x="470" y="332" width="300" height="57" rx="18" fill="#FFFFFF" stroke="#06BEB6" stroke-width="3"/>
<polygon points="712,387.5 736,387.5 746.4,411" fill="#FFFFFF"/>
<line x1="736" y1="389" x2="746.4" y2="411" stroke="#06BEB6" stroke-width="3" stroke-linecap="round"/>
<line x1="712" y1="389" x2="746.4" y2="411" stroke="#06BEB6" stroke-width="3" stroke-linecap="round"/>
<text x="620" y="353.46" font-family="Vazirmatn, Tahoma, sans-serif" font-size="16" fill="#3C4A5E" font-weight="600" text-anchor="middle" direction="rtl">«رنگ دوچرخه، حیوان روی</text>
<text x="620" y="379.06" font-family="Vazirmatn, Tahoma, sans-serif" font-size="16" fill="#3C4A5E" font-weight="600" text-anchor="middle" direction="rtl">زین و درخت کنارش را بگو.»</text>
<svg x="394" y="333.7" width="52" height="41.6" viewBox="0 0 640 512" fill="#2D3A8C"><path d="M32,224H64V416H32A31.96166,31.96166,0,0,1,0,384V256A31.96166,31.96166,0,0,1,32,224Zm512-48V448a64.06328,64.06328,0,0,1-64,64H160a64.06328,64.06328,0,0,1-64-64V176a79.974,79.974,0,0,1,80-80H288V32a32,32,0,0,1,64,0V96H464A79.974,79.974,0,0,1,544,176ZM264,256a40,40,0,1,0-40,40A39.997,39.997,0,0,0,264,256Zm-8,128H192v32h64Zm96,0H288v32h64ZM456,256a40,40,0,1,0-40,40A39.997,39.997,0,0,0,456,256Zm-8,128H384v32h64ZM640,256V384a31.96166,31.96166,0,0,1-32,32H576V224h32A31.96166,31.96166,0,0,1,640,256Z"></path></svg>
<line x1="462" y1="354.5" x2="461" y2="354.5" stroke="#8C97AB" stroke-width="3" stroke-linecap="round"/>
<polygon points="450,354.5 461,361.1 461,347.9" fill="#8C97AB"/>
<line x1="392" y1="354.5" x2="391" y2="354.5" stroke="#8C97AB" stroke-width="3" stroke-linecap="round"/>
<polygon points="380,354.5 391,361.1 391,347.9" fill="#8C97AB"/>
<rect x="60" y="320" width="310" height="71" rx="14" fill="#DDF6F4"/>
<text x="215" y="343.5" font-family="Vazirmatn, Tahoma, sans-serif" font-size="15.5" fill="#3C4A5E" font-weight="600" text-anchor="middle" direction="rtl">«دوچرخه‌ی قرمز، گربه‌ی</text>
<text x="215" y="369.5" font-family="Vazirmatn, Tahoma, sans-serif" font-size="15.5" fill="#3C4A5E" font-weight="600" text-anchor="middle" direction="rtl">خاکستری روی زین، کنار درخت سیب.»</text>
<circle cx="60" cy="320" r="17" fill="#2E9E5B"/>
<svg x="51.075" y="311.075" width="17.85" height="17.85" viewBox="0 0 512 512" fill="#FFFFFF"><path d="M173.898 439.404l-166.4-166.4c-9.997-9.997-9.997-26.206 0-36.204l36.203-36.204c9.997-9.998 26.207-9.998 36.204 0L192 312.69 432.095 72.596c9.997-9.997 26.207-9.997 36.204 0l36.203 36.204c9.997 9.997 9.997 26.206 0 36.204l-294.4 294.401c-9.998 9.997-26.207 9.997-36.204-.001z"></path></svg>
</svg>
