<svg xmlns="http://www.w3.org/2000/svg" width="900" height="354" viewBox="0 0 900 354" font-family="Vazirmatn, Tahoma, sans-serif">
<rect x="0" y="0" width="900" height="354" rx="0" fill="#F2F5FF"/>
<rect x="0" y="0" width="900" height="10" rx="0" fill="#2D3A8C"/>
<text x="870" y="56" font-family="Vazirmatn, Tahoma, sans-serif" font-size="27" fill="#1E2761" font-weight="700" text-anchor="start" direction="rtl">کارشناس کشاورزی دقیق چگونه تصمیم می‌گیرد؟</text>
<circle cx="737.333" cy="187.12" r="69.12" fill="#FFFFFF"/>
<svg x="689.333" y="139.12" width="96" height="96" viewBox="0 0 512 512" fill="#2D3A8C"><path d="M152.864 59l-4.21 20h33.816l-4.211-20zm3.698 38v14h18V97zm-30.715 32l-7.78 94h17.145l6-80h130.545l-2-14zm302.715 23v74.602a593.471 593.471 0 0 1 18 1.666V152zm-270.65 9l-4.651 62h6.3c10.003 0 19.544 4.28 29 10.645V161zm48.65 0v84.26l78 8.681v-21.296L274.327 161zm-121 80c-8 0-23.292 6.759-37.377 18.027-10.908 8.726-21.254 19.89-28.747 31.166l16.813 4.203C56.271 269.225 87.129 253 121.561 253c50.594 0 93.48 35.024 105.586 82h20.409c-9.132-18.739-23.077-40.212-38.323-57.889-9.33-10.819-19.063-20.19-27.945-26.601-8.881-6.412-16.88-9.51-21.726-9.51zm217 .059V351h32.15c9.085-30.155 26.196-50.771 49.125-61.193 12.31-5.596 25.987-8.305 40.736-8.578 11.399-.212 23.445 1.049 35.989 3.54v-36.49c-11.495-1.781-25.084-3.178-39.633-4.203-40.207-2.831-86.16-3-118.367-3.017zm176 10.814V271h14v-13.41c-3.978-2.698-9.906-4.606-14-5.717zM222.7 265.168c.054.063.11.123.164.186 19.996 23.183 37.843 51.59 47.086 75.386l4.762 12.26h-44.53c.247 2.97.38 5.97.38 9 0 7.178-.713 14.198-2.057 21h56.057V272.055zM121.562 271c-50.081 0-91 40.92-91 91s40.919 91 91 91c50.08 0 91-40.92 91-91s-40.92-91-91-91zm357 18v14h14v-14zm-357 4c38.16 0 69 30.84 69 69s-30.84 69-69 69c-38.161 0-69-30.84-69-69s30.839-69 69-69zm307.603 6.27c-12.894.164-27.37 2.264-37.879 6.923-16.839 7.654-29.674 21.545-37.691 44.807h10.57c13.936-22.718 39.012-38 67.397-38a77.97 77.97 0 0 1 29 5.6v-15.448c-11.185-2.416-21.683-3.723-31.397-3.882zM121.562 311c-28.588 0-51 22.413-51 51s22.412 51 51 51c28.587 0 51-22.413 51-51s-22.413-51-51-51zm357 10v7.67a80.334 80.334 0 0 1 14 13.357V321zm-47 10c-33.493 0-61 27.508-61 61 0 33.492 27.507 61 61 61 33.492 0 61-27.508 61-61 0-33.492-27.508-61-61-61zm0 22c21.516 0 39 17.484 39 39s-17.484 39-39 39c-21.517 0-39-17.484-39-39s17.483-39 39-39zm-129 16v15.377l50.01 8.334c-.003-.237-.01-.473-.01-.711 0-7.988 1.219-15.71 3.464-23zm129 2c-12.095 0-21 8.905-21 21s8.905 21 21 21c12.094 0 21-8.905 21-21s-8.906-21-21-21z"></path></svg>
<text x="737.333" y="280.24" font-family="Vazirmatn, Tahoma, sans-serif" font-size="17" fill="#3C4A5E" font-weight="600" text-anchor="middle" direction="rtl">کارشناس</text>
<circle cx="450" cy="187.12" r="69.12" fill="#FFFFFF"/>
<svg x="402" y="139.12" width="96" height="96" viewBox="0 0 512 512" fill="#06BEB6"><path d="M64 96H0c0 123.7 100.3 224 224 224v144c0 8.8 7.2 16 16 16h32c8.8 0 16-7.2 16-16V320C288 196.3 187.7 96 64 96zm384-64c-84.2 0-157.4 46.5-195.7 115.2 27.7 30.2 48.2 66.9 59 107.6C424 243.1 512 147.9 512 32h-64z"></path></svg>
<text x="450" y="280.24" font-family="Vazirmatn, Tahoma, sans-serif" font-size="17" fill="#3C4A5E" font-weight="600" text-anchor="middle" direction="rtl">مزرعه</text>
<circle cx="162.667" cy="187.12" r="69.12" fill="#FFFFFF"/>
<svg x="126.667" y="139.12" width="72" height="96" viewBox="0 0 384 512" fill="#FFC93C"><path d="M202.021 0C122.202 0 70.503 32.703 29.914 91.026c-7.363 10.58-5.093 25.086 5.178 32.874l43.138 32.709c10.373 7.865 25.132 6.026 33.253-4.148 25.049-31.381 43.63-49.449 82.757-49.449 30.764 0 68.816 19.799 68.816 49.631 0 22.552-18.617 34.134-48.993 51.164-35.423 19.86-82.299 44.576-82.299 106.405V320c0 13.255 10.745 24 24 24h72.471c13.255 0 24-10.745 24-24v-5.773c0-42.86 125.268-44.645 125.268-160.627C377.504 66.256 286.902 0 202.021 0zM192 373.459c-38.196 0-69.271 31.075-69.271 69.271 0 38.195 31.075 69.27 69.271 69.27s69.271-31.075 69.271-69.271-31.075-69.27-69.271-69.27z"></path></svg>
<text x="162.667" y="280.24" font-family="Vazirmatn, Tahoma, sans-serif" font-size="17" fill="#3C4A5E" font-weight="600" text-anchor="middle" direction="rtl">بر چه پایه‌ای؟</text>
<text x="450" y="320.24" font-family="Vazirmatn, Tahoma, sans-serif" font-size="17" fill="#1E2761" font-weight="500" text-anchor="middle" direction="rtl">تصمیمش را بر چه چیزی می‌گذارد؟</text>
</svg>