<svg xmlns="http://www.w3.org/2000/svg" width="900" height="386" viewBox="0 0 900 386" font-family="Vazirmatn, Tahoma, sans-serif">
<rect x="0" y="0" width="900" height="386" rx="0" fill="#F2F5FF"/>
<rect x="0" y="0" width="900" height="10" rx="0" fill="#2D3A8C"/>
<text x="870" y="56" font-family="Vazirmatn, Tahoma, sans-serif" font-size="27" fill="#1E2761" font-weight="700" text-anchor="start" direction="rtl">در خانه هم امتحان کن</text>
<rect x="673.5" y="130" width="196.5" height="180.78" rx="18" fill="#FFFFFF" stroke="#D7DEF2" stroke-width="2"/>
<rect x="673.5" y="130" width="196.5" height="34" rx="18" fill="#06BEB6"/>
<rect x="673.5" y="146" width="196.5" height="18" rx="0" fill="#06BEB6"/>
<circle cx="850" cy="147" r="12" fill="#FFFFFF"/>
<text x="850" y="153" font-family="Vazirmatn, Tahoma, sans-serif" font-size="15" fill="#06BEB6" font-weight="700" text-anchor="middle" direction="rtl">۱</text>
<text x="763.75" y="153" font-family="Vazirmatn, Tahoma, sans-serif" font-size="14" fill="#FFFFFF" font-weight="700" text-anchor="middle" direction="rtl"></text>
<svg x="741.017" y="207.535" width="61.4652" height="54.6357" viewBox="0 0 576 512" fill="#06BEB6"><path d="M280.37 148.26L96 300.11V464a16 16 0 0 0 16 16l112.06-.29a16 16 0 0 0 15.92-16V368a16 16 0 0 1 16-16h64a16 16 0 0 1 16 16v95.64a16 16 0 0 0 16 16.05L464 480a16 16 0 0 0 16-16V300L295.67 148.26a12.19 12.19 0 0 0-15.3 0zM571.6 251.47L488 182.56V44.05a12 12 0 0 0-12-12h-56a12 12 0 0 0-12 12v72.61L318.47 43a48 48 0 0 0-61 0L4.34 251.47a12 12 0 0 0-1.6 16.9l25.5 31A12 12 0 0 0 45.15 301l235.22-193.74a12.19 12.19 0 0 1 15.3 0L530.9 301a12 12 0 0 0 16.9-1.6l25.5-31a12 12 0 0 0-1.7-16.93z"></path></svg>
<text x="771.75" y="284.78" font-family="Vazirmatn, Tahoma, sans-serif" font-size="15" fill="#3C4A5E" font-weight="600" text-anchor="middle" direction="rtl">درخواست مبهم بپرس</text>
<rect x="459" y="130" width="196.5" height="180.78" rx="18" fill="#FFFFFF" stroke="#D7DEF2" stroke-width="2"/>
<rect x="459" y="130" width="196.5" height="34" rx="18" fill="#FFC93C"/>
<rect x="459" y="146" width="196.5" height="18" rx="0" fill="#FFC93C"/>
<circle cx="635.5" cy="147" r="12" fill="#FFFFFF"/>
<text x="635.5" y="153" font-family="Vazirmatn, Tahoma, sans-serif" font-size="15" fill="#FFC93C" font-weight="700" text-anchor="middle" direction="rtl">۲</text>
<text x="549.25" y="153" font-family="Vazirmatn, Tahoma, sans-serif" font-size="14" fill="#FFFFFF" font-weight="700" text-anchor="middle" direction="rtl"></text>
<svg x="527.478" y="204.12" width="59.5444" height="61.4652" viewBox="0 0 496 512" fill="#FFC93C"><path d="M248 8C111 8 0 119 0 256s111 248 248 248 248-111 248-248S385 8 248 8zm-80 168c17.7 0 32 14.3 32 32s-14.3 32-32 32-32-14.3-32-32 14.3-32 32-32zm176 192H152c-21.2 0-21.2-32 0-32h192c21.2 0 21.2 32 0 32zm-16-128c-17.7 0-32-14.3-32-32s14.3-32 32-32 32 14.3 32 32-14.3 32-32 32z"></path></svg>
<text x="557.25" y="284.78" font-family="Vazirmatn, Tahoma, sans-serif" font-size="15" fill="#3C4A5E" font-weight="600" text-anchor="middle" direction="rtl">پاسخ کلی می‌گیری</text>
<rect x="244.5" y="130" width="196.5" height="180.78" rx="18" fill="#FFFFFF" stroke="#D7DEF2" stroke-width="2"/>
<rect x="244.5" y="130" width="196.5" height="34" rx="18" fill="#8E7CE8"/>
<rect x="244.5" y="146" width="196.5" height="18" rx="0" fill="#8E7CE8"/>
<circle cx="421" cy="147" r="12" fill="#FFFFFF"/>
<text x="421" y="153" font-family="Vazirmatn, Tahoma, sans-serif" font-size="15" fill="#8E7CE8" font-weight="700" text-anchor="middle" direction="rtl">۳</text>
<text x="334.75" y="153" font-family="Vazirmatn, Tahoma, sans-serif" font-size="14" fill="#FFFFFF" font-weight="700" text-anchor="middle" direction="rtl"></text>
<svg x="312.017" y="204.12" width="61.4652" height="61.4652" viewBox="0 0 512 512" fill="#8E7CE8"><path d="M505 442.7L405.3 343c-4.5-4.5-10.6-7-17-7H372c27.6-35.3 44-79.7 44-128C416 93.1 322.9 0 208 0S0 93.1 0 208s93.1 208 208 208c48.3 0 92.7-16.4 128-44v16.3c0 6.4 2.5 12.5 7 17l99.7 99.7c9.4 9.4 24.6 9.4 33.9 0l28.3-28.3c9.4-9.4 9.4-24.6.1-34zM208 336c-70.7 0-128-57.2-128-128 0-70.7 57.2-128 128-128 70.7 0 128 57.2 128 128 0 70.7-57.2 128-128 128z"></path></svg>
<text x="342.75" y="284.78" font-family="Vazirmatn, Tahoma, sans-serif" font-size="15" fill="#3C4A5E" font-weight="600" text-anchor="middle" direction="rtl">سه نشانه اضافه کن</text>
<rect x="30" y="130" width="196.5" height="180.78" rx="18" fill="#FFFFFF" stroke="#D7DEF2" stroke-width="2"/>
<rect x="30" y="130" width="196.5" height="34" rx="18" fill="#FF6B6B"/>
<rect x="30" y="146" width="196.5" height="18" rx="0" fill="#FF6B6B"/>
<circle cx="206.5" cy="147" r="12" fill="#FFFFFF"/>
<text x="206.5" y="153" font-family="Vazirmatn, Tahoma, sans-serif" font-size="15" fill="#FF6B6B" font-weight="700" text-anchor="middle" direction="rtl">۴</text>
<text x="120.25" y="153" font-family="Vazirmatn, Tahoma, sans-serif" font-size="14" fill="#FFFFFF" font-weight="700" text-anchor="middle" direction="rtl"></text>
<svg x="98.4778" y="204.12" width="59.5444" height="61.4652" viewBox="0 0 496 512" fill="#FF6B6B"><path d="M248 8C111 8 0 119 0 256s111 248 248 248 248-111 248-248S385 8 248 8zm80 168c17.7 0 32 14.3 32 32s-14.3 32-32 32-32-14.3-32-32 14.3-32 32-32zm-160 0c17.7 0 32 14.3 32 32s-14.3 32-32 32-32-14.3-32-32 14.3-32 32-32zm194.8 170.2C334.3 380.4 292.5 400 248 400s-86.3-19.6-114.8-53.8c-13.6-16.3 11-36.7 24.6-20.5 22.4 26.9 55.2 42.2 90.2 42.2s67.8-15.4 90.2-42.2c13.4-16.2 38.1 4.2 24.6 20.5z"></path></svg>
<text x="128.25" y="284.78" font-family="Vazirmatn, Tahoma, sans-serif" font-size="15" fill="#3C4A5E" font-weight="600" text-anchor="middle" direction="rtl">پاسخ دقیق می‌گیری</text>
<text x="450" y="352.78" font-family="Vazirmatn, Tahoma, sans-serif" font-size="18" fill="#3C4A5E" font-weight="400" text-anchor="middle" direction="rtl">تفاوت دو پاسخ را با خانواده مقایسه کن.</text>
</svg>