<svg xmlns="http://www.w3.org/2000/svg" width="900" height="480" viewBox="0 0 900 480" font-family="Vazirmatn, Tahoma, sans-serif">
<rect x="0" y="0" width="900" height="480" rx="0" fill="#F2F5FF"/>
<rect x="0" y="0" width="900" height="10" rx="0" fill="#2D3A8C"/>
<text x="870" y="56" font-family="Vazirmatn, Tahoma, sans-serif" font-size="27" fill="#1E2761" font-weight="700" text-anchor="start" direction="rtl">ریتم تند، ریتم آرام</text>
<text x="870" y="84" font-family="Vazirmatn, Tahoma, sans-serif" font-size="17" fill="#8C97AB" font-weight="400" text-anchor="start" direction="rtl">یک صحنه‌ی گل‌زدن، دو تدوین</text>
<rect x="775" y="153" width="90" height="32.3" rx="16.15" fill="#FF6B6B"/>
<text x="820" y="175.12" font-family="Vazirmatn, Tahoma, sans-serif" font-size="17" fill="#FFFFFF" font-weight="700" text-anchor="middle" direction="rtl">تند</text>
<rect x="695.5" y="135" width="51.5" height="70" rx="8" fill="#FFE9E9" stroke="#FF6B6B" stroke-width="2"/>
<rect x="638" y="135" width="51.5" height="70" rx="8" fill="#FFE9E9" stroke="#FF6B6B" stroke-width="2"/>
<rect x="580.5" y="135" width="51.5" height="70" rx="8" fill="#FFE9E9" stroke="#FF6B6B" stroke-width="2"/>
<rect x="523" y="135" width="51.5" height="70" rx="8" fill="#FFE9E9" stroke="#FF6B6B" stroke-width="2"/>
<rect x="465.5" y="135" width="51.5" height="70" rx="8" fill="#FFE9E9" stroke="#FF6B6B" stroke-width="2"/>
<rect x="408" y="135" width="51.5" height="70" rx="8" fill="#FFE9E9" stroke="#FF6B6B" stroke-width="2"/>
<rect x="350.5" y="135" width="51.5" height="70" rx="8" fill="#FFE9E9" stroke="#FF6B6B" stroke-width="2"/>
<rect x="293" y="135" width="51.5" height="70" rx="8" fill="#FFE9E9" stroke="#FF6B6B" stroke-width="2"/>
<rect x="235.5" y="135" width="51.5" height="70" rx="8" fill="#FFE9E9" stroke="#FF6B6B" stroke-width="2"/>
<rect x="178" y="135" width="51.5" height="70" rx="8" fill="#FFE9E9" stroke="#FF6B6B" stroke-width="2"/>
<rect x="120.5" y="135" width="51.5" height="70" rx="8" fill="#FFE9E9" stroke="#FF6B6B" stroke-width="2"/>
<rect x="63" y="135" width="51.5" height="70" rx="8" fill="#FFE9E9" stroke="#FF6B6B" stroke-width="2"/>
<svg x="827" y="222" width="26" height="26" viewBox="0 0 512 512" fill="#FF6B6B"><path d="M470.38 1.51L150.41 96A32 32 0 0 0 128 126.51v261.41A139 139 0 0 0 96 384c-53 0-96 28.66-96 64s43 64 96 64 96-28.66 96-64V214.32l256-75v184.61a138.4 138.4 0 0 0-32-3.93c-53 0-96 28.66-96 64s43 64 96 64 96-28.65 96-64V32a32 32 0 0 0-41.62-30.49z"></path></svg>
<text x="810" y="243" font-family="Vazirmatn, Tahoma, sans-serif" font-size="16" fill="#3C4A5E" font-weight="600" text-anchor="start" direction="rtl">برش‌های کوتاه + موسیقی پرضرب</text>
<rect x="775" y="303" width="90" height="32.3" rx="16.15" fill="#06BEB6"/>
<text x="820" y="325.12" font-family="Vazirmatn, Tahoma, sans-serif" font-size="17" fill="#FFFFFF" font-weight="700" text-anchor="middle" direction="rtl">آرام</text>
<rect x="523" y="285" width="224" height="70" rx="8" fill="#DDF6F4" stroke="#06BEB6" stroke-width="2"/>
<rect x="235.5" y="285" width="281.5" height="70" rx="8" fill="#DDF6F4" stroke="#06BEB6" stroke-width="2"/>
<rect x="63" y="285" width="166.5" height="70" rx="8" fill="#DDF6F4" stroke="#06BEB6" stroke-width="2"/>
<svg x="827" y="372" width="26" height="26" viewBox="0 0 512 512" fill="#06BEB6"><path d="M256,8C119,8,8,119,8,256S119,504,256,504,504,393,504,256,393,8,256,8Zm92.49,313h0l-20,25a16,16,0,0,1-22.49,2.5h0l-67-49.72a40,40,0,0,1-15-31.23V112a16,16,0,0,1,16-16h32a16,16,0,0,1,16,16V256l58,42.5A16,16,0,0,1,348.49,321Z"></path></svg>
<text x="810" y="393" font-family="Vazirmatn, Tahoma, sans-serif" font-size="16" fill="#3C4A5E" font-weight="600" text-anchor="start" direction="rtl">نماهای طولانی + سکوت</text>
<text x="450" y="458" font-family="Vazirmatn, Tahoma, sans-serif" font-size="16" fill="#8C97AB" font-weight="400" text-anchor="middle" direction="rtl">هر دو از همان لحظه ساخته شده‌اند؛ فرق، انتخاب تدوینگر است.</text>
</svg>
