<svg xmlns="http://www.w3.org/2000/svg" width="900" height="464" viewBox="0 0 900 464" font-family="Vazirmatn, Tahoma, sans-serif">
<rect x="0" y="0" width="900" height="464" rx="0" fill="#F2F5FF"/>
<rect x="0" y="0" width="900" height="10" rx="0" fill="#2D3A8C"/>
<text x="870" y="56" font-family="Vazirmatn, Tahoma, sans-serif" font-size="27" fill="#1E2761" font-weight="700" text-anchor="start" direction="rtl">چرا این روایت هنوز مال من است؟</text>
<circle cx="450" cy="298" r="92" fill="#FFFFFF"/>
<svg x="396" y="254.8" width="108" height="86.4" viewBox="0 0 640 512" fill="#2D3A8C"><path d="M528 448H112c-8.8 0-16 7.2-16 16v32c0 8.8 7.2 16 16 16h416c8.8 0 16-7.2 16-16v-32c0-8.8-7.2-16-16-16zm64-320c-26.5 0-48 21.5-48 48 0 7.1 1.6 13.7 4.4 19.8L476 239.2c-15.4 9.2-35.3 4-44.2-11.6L350.3 85C361 76.2 368 63 368 48c0-26.5-21.5-48-48-48s-48 21.5-48 48c0 15 7 28.2 17.7 37l-81.5 142.6c-8.9 15.6-28.9 20.8-44.2 11.6l-72.3-43.4c2.7-6 4.4-12.7 4.4-19.8 0-26.5-21.5-48-48-48S0 149.5 0 176s21.5 48 48 48c2.6 0 5.2-.4 7.7-.8L128 416h384l72.3-192.8c2.5.4 5.1.8 7.7.8 26.5 0 48-21.5 48-48s-21.5-48-48-48z"></path></svg>
<line x1="538" y1="250" x2="700" y2="188" stroke="#06BEB6" stroke-width="3" stroke-linecap="round" stroke-dasharray="6 6"/>
<rect x="590" y="159" width="220" height="58" rx="14" fill="#FFFFFF" stroke="#06BEB6" stroke-width="3"/>
<text x="700" y="188" font-family="Vazirmatn, Tahoma, sans-serif" font-size="17" fill="#3C4A5E" font-weight="600" text-anchor="middle" direction="rtl">آغاز: مال من</text>
<line x1="362" y1="250" x2="200" y2="188" stroke="#FF6B6B" stroke-width="3" stroke-linecap="round" stroke-dasharray="6 6"/>
<rect x="90" y="159" width="220" height="58" rx="14" fill="#FFFFFF" stroke="#FF6B6B" stroke-width="3"/>
<text x="200" y="188" font-family="Vazirmatn, Tahoma, sans-serif" font-size="17" fill="#3C4A5E" font-weight="600" text-anchor="middle" direction="rtl">پایان: مال من</text>
<line x1="538" y1="346" x2="700" y2="408" stroke="#8E7CE8" stroke-width="3" stroke-linecap="round" stroke-dasharray="6 6"/>
<rect x="590" y="379" width="220" height="58" rx="14" fill="#FFFFFF" stroke="#8E7CE8" stroke-width="3"/>
<text x="700" y="408" font-family="Vazirmatn, Tahoma, sans-serif" font-size="17" fill="#3C4A5E" font-weight="600" text-anchor="middle" direction="rtl">وسط: نوشته‌ی دستیار</text>
<line x1="362" y1="346" x2="200" y2="408" stroke="#FFC93C" stroke-width="3" stroke-linecap="round" stroke-dasharray="6 6"/>
<rect x="90" y="379" width="220" height="58" rx="14" fill="#FFFFFF" stroke="#FFC93C" stroke-width="3"/>
<text x="200" y="408" font-family="Vazirmatn, Tahoma, sans-serif" font-size="17" fill="#3C4A5E" font-weight="600" text-anchor="middle" direction="rtl">مالکیت روایت: مال من</text>
</svg>