<svg xmlns="http://www.w3.org/2000/svg" width="900" height="395" viewBox="0 0 900 395" font-family="Vazirmatn, Tahoma, sans-serif">
<rect x="0" y="0" width="900" height="395" rx="0" fill="#F2F5FF"/>
<rect x="0" y="0" width="900" height="10" rx="0" fill="#2D3A8C"/>
<text x="870" y="56" font-family="Vazirmatn, Tahoma, sans-serif" font-size="27" fill="#1E2761" font-weight="700" text-anchor="start" direction="rtl">قاعده‌ی سبک خوب چه شکلی است؟</text>
<rect x="463" y="96" width="407" height="267.3" rx="20" fill="#FFFFFF" stroke="#06BEB6" stroke-width="3"/>
<rect x="463" y="96" width="407" height="46" rx="20" fill="#06BEB6"/>
<rect x="463" y="122" width="407" height="20" rx="0" fill="#06BEB6"/>
<text x="666.5" y="127" font-family="Vazirmatn, Tahoma, sans-serif" font-size="20" fill="#FFFFFF" font-weight="700" text-anchor="middle" direction="rtl">قاعده‌ی مشخص</text>
<svg x="629.5" y="182.4" width="74" height="59.2" viewBox="0 0 640 512" fill="#06BEB6"><path d="M635.7 167.2L556.1 31.7c-8.8-15-28.3-20.1-43.5-11.5l-69 39.1L503.3 161c2.2 3.8.9 8.5-2.9 10.7l-13.8 7.8c-3.8 2.2-8.7.9-10.9-2.9L416 75l-55.2 31.3 27.9 47.4c2.2 3.8.9 8.5-2.9 10.7l-13.8 7.8c-3.8 2.2-8.7.9-10.9-2.9L333.2 122 278 153.3 337.8 255c2.2 3.7.9 8.5-2.9 10.7l-13.8 7.8c-3.8 2.2-8.7.9-10.9-2.9l-59.7-101.7-55.2 31.3 27.9 47.4c2.2 3.8.9 8.5-2.9 10.7l-13.8 7.8c-3.8 2.2-8.7.9-10.9-2.9l-27.9-47.5-55.2 31.3 59.7 101.7c2.2 3.7.9 8.5-2.9 10.7l-13.8 7.8c-3.8 2.2-8.7.9-10.9-2.9L84.9 262.9l-69 39.1C.7 310.7-4.6 329.8 4.2 344.8l79.6 135.6c8.8 15 28.3 20.1 43.5 11.5L624.1 210c15.2-8.6 20.4-27.8 11.6-42.8z"></path></svg>
<circle cx="848" cy="264" r="5" fill="#06BEB6"/>
<text x="834" y="270" font-family="Vazirmatn, Tahoma, sans-serif" font-size="17" fill="#3C4A5E" font-weight="400" text-anchor="start" direction="rtl">قابل تشخیص است</text>
<circle cx="848" cy="302.65" r="5" fill="#06BEB6"/>
<text x="834" y="308.65" font-family="Vazirmatn, Tahoma, sans-serif" font-size="17" fill="#3C4A5E" font-weight="400" text-anchor="start" direction="rtl">مثال دارد</text>
<rect x="30" y="96" width="407" height="267.3" rx="20" fill="#FFFFFF" stroke="#FF6B6B" stroke-width="3"/>
<rect x="30" y="96" width="407" height="46" rx="20" fill="#FF6B6B"/>
<rect x="30" y="122" width="407" height="20" rx="0" fill="#FF6B6B"/>
<text x="233.5" y="127" font-family="Vazirmatn, Tahoma, sans-serif" font-size="20" fill="#FFFFFF" font-weight="700" text-anchor="middle" direction="rtl">قاعده‌ی مبهم</text>
<svg x="197.656" y="175" width="71.6875" height="74" viewBox="0 0 496 512" fill="#FF6B6B"><path d="M248 8C111 8 0 119 0 256s111 248 248 248 248-111 248-248S385 8 248 8zm-80 168c17.7 0 32 14.3 32 32s-14.3 32-32 32-32-14.3-32-32 14.3-32 32-32zm176 192H152c-21.2 0-21.2-32 0-32h192c21.2 0 21.2 32 0 32zm-16-128c-17.7 0-32-14.3-32-32s14.3-32 32-32 32 14.3 32 32-14.3 32-32 32z"></path></svg>
<circle cx="415" cy="264" r="5" fill="#FF6B6B"/>
<text x="401" y="270" font-family="Vazirmatn, Tahoma, sans-serif" font-size="17" fill="#3C4A5E" font-weight="400" text-anchor="start" direction="rtl">هرکسی می‌گوید</text>
<circle cx="415" cy="302.65" r="5" fill="#FF6B6B"/>
<text x="401" y="308.65" font-family="Vazirmatn, Tahoma, sans-serif" font-size="17" fill="#3C4A5E" font-weight="400" text-anchor="start" direction="rtl">مثال ندارد</text>
</svg>