<svg xmlns="http://www.w3.org/2000/svg" width="900" height="306" viewBox="0 0 900 306" font-family="Vazirmatn, Tahoma, sans-serif">
<rect x="0" y="0" width="900" height="306" rx="0" fill="#F2F5FF"/>
<rect x="0" y="0" width="900" height="10" rx="0" fill="#2D3A8C"/>
<text x="870" y="56" font-family="Vazirmatn, Tahoma, sans-serif" font-size="27" fill="#1E2761" font-weight="700" text-anchor="start" direction="rtl">چرا پیش از توضیح ثبت می‌کنیم؟</text>
<rect x="619.333" y="140" width="250.667" height="130" rx="65" fill="#FFFFFF" stroke="#06BEB6" stroke-width="3"/>
<svg x="724.667" y="161" width="40" height="40" viewBox="0 0 512 512" fill="#06BEB6"><path d="M497.9 142.1l-46.1 46.1c-4.7 4.7-12.3 4.7-17 0l-111-111c-4.7-4.7-4.7-12.3 0-17l46.1-46.1c18.7-18.7 49.1-18.7 67.9 0l60.1 60.1c18.8 18.7 18.8 49.1 0 67.9zM284.2 99.8L21.6 362.4.4 483.9c-2.9 16.4 11.4 30.6 27.8 27.8l121.5-21.3 262.6-262.6c4.7-4.7 4.7-12.3 0-17l-111-111c-4.8-4.7-12.4-4.7-17.1 0zM124.1 339.9c-5.5-5.5-5.5-14.3 0-19.8l154-154c5.5-5.5 14.3-5.5 19.8 0s5.5 14.3 0 19.8l-154 154c-5.5 5.5-14.3 5.5-19.8 0zM88 424h48v36.3l-64.5 11.3-31.1-31.1L51.7 376H88v48z"></path></svg>
<text x="744.667" y="231" font-family="Vazirmatn, Tahoma, sans-serif" font-size="16" fill="#3C4A5E" font-weight="600" text-anchor="middle" direction="rtl">ثبت K1</text>
<line x1="611.333" y1="205" x2="592.683" y2="205" stroke="#8C97AB" stroke-width="3" stroke-linecap="round"/><polygon points="583.333,205 593.238,200.215 593.238,209.785" fill="#8C97AB"/>
<rect x="324.667" y="140" width="250.667" height="130" rx="18" fill="#FFFFFF" stroke="#2D3A8C" stroke-width="3"/>
<svg x="430" y="161" width="40" height="40" viewBox="0 0 512 512" fill="#2D3A8C"><path d="M120.998 40.998v37.943C136.22 89.471 146 109.278 146 131.001c0 13.71-3.901 26.65-10.598 36.985 3.465 1.35 7.106 2.85 10.15 4.172l122.352-22.783 5.918 54.842-111.748 23.219c-.862 16.261-2.45 32.262-5.289 51.566h336.217V40.998zM96 88.998c-16.595 0-32.002 17.747-32.002 42.004 0 24.257 15.407 42.002 32.002 42.002 16.595 0 32.002-17.745 32.002-42.002S112.595 88.998 96 88.998zm156.096 81.629l-108.592 20.22c-14.24-5.602-4.956-3.035-21.469-8.517-7.476 5.469-16.33 8.672-26.035 8.672-8.6 0-16.53-2.523-23.428-6.9-8.59 3.564-17.655 8.09-25.736 12.654-12.992 7.338-23.722 13.211-27.838 16.033v130.213h20.004V232h17.996v263.002h30.004V326h17.996v169.002h26.004v-171.84l.154-.824c9.514-50.64 12.588-77.384 13.461-109.656l109.56-22.766zm-98.153 126.375c-.952 5.682-1.991 11.64-3.146 17.996H478v-17.996zM208 344.998c-16.595 0-32.002 17.747-32.002 42.004 0 18.198 8.67 32.73 20.01 38.855 3.599-1.662 7.482-2.706 11.68-2.851 4.633-.16 8.98.767 13.052 2.42 10.968-6.352 19.262-20.63 19.262-38.424 0-24.257-15.407-42.004-32.002-42.004zm112 0c-16.595 0-32.002 17.747-32.002 42.004 0 18.198 8.67 32.73 20.01 38.855 3.599-1.662 7.482-2.706 11.68-2.851 4.633-.16 8.98.767 13.052 2.42 10.968-6.352 19.262-20.63 19.262-38.424 0-24.257-15.407-42.004-32.002-42.004zm112 0c-16.595 0-32.002 17.747-32.002 42.004 0 18.198 8.67 32.73 20.01 38.855 3.599-1.662 7.482-2.706 11.68-2.851 4.633-.16 8.98.767 13.052 2.42 10.968-6.352 19.262-20.63 19.262-38.424 0-24.257-15.407-42.004-32.002-42.004zm-223.688 95.996c-3.844.133-8.907 2.93-14.3 8.785-5.394 5.855-10.696 14.25-15.125 22.76-4.226 8.12-7.609 16.16-10.06 22.463h85.339c-3.04-6.436-7.138-14.549-12.133-22.711-5.298-8.658-11.511-17.138-17.668-22.957-6.157-5.819-11.8-8.487-16.053-8.34zm112 0c-3.844.133-8.907 2.93-14.3 8.785-5.394 5.855-10.696 14.25-15.125 22.76-4.226 8.12-7.609 16.16-10.06 22.463h85.339c-3.04-6.436-7.138-14.549-12.133-22.711-5.298-8.658-11.511-17.138-17.668-22.957-6.157-5.819-11.8-8.487-16.052-8.34zm112 0c-3.844.133-8.907 2.93-14.3 8.785-5.394 5.855-10.696 14.25-15.125 22.76-4.226 8.12-7.609 16.16-10.06 22.463h85.339c-3.04-6.436-7.138-14.549-12.133-22.711-5.298-8.658-11.511-17.138-17.668-22.957-6.157-5.819-11.8-8.487-16.052-8.34z"></path></svg>
<text x="450" y="231" font-family="Vazirmatn, Tahoma, sans-serif" font-size="16" fill="#3C4A5E" font-weight="600" text-anchor="middle" direction="rtl">توضیح معلم</text>
<line x1="316.667" y1="205" x2="298.017" y2="205" stroke="#8C97AB" stroke-width="3" stroke-linecap="round"/><polygon points="288.667,205 298.572,200.215 298.572,209.785" fill="#8C97AB"/>
<rect x="30" y="140" width="250.667" height="130" rx="65" fill="#FFFFFF" stroke="#FF6B6B" stroke-width="3"/>
<svg x="135.333" y="161" width="40" height="40" viewBox="0 0 512 512" fill="#FF6B6B"><path d="M332.8 320h38.4c6.4 0 12.8-6.4 12.8-12.8V172.8c0-6.4-6.4-12.8-12.8-12.8h-38.4c-6.4 0-12.8 6.4-12.8 12.8v134.4c0 6.4 6.4 12.8 12.8 12.8zm96 0h38.4c6.4 0 12.8-6.4 12.8-12.8V76.8c0-6.4-6.4-12.8-12.8-12.8h-38.4c-6.4 0-12.8 6.4-12.8 12.8v230.4c0 6.4 6.4 12.8 12.8 12.8zm-288 0h38.4c6.4 0 12.8-6.4 12.8-12.8v-70.4c0-6.4-6.4-12.8-12.8-12.8h-38.4c-6.4 0-12.8 6.4-12.8 12.8v70.4c0 6.4 6.4 12.8 12.8 12.8zm96 0h38.4c6.4 0 12.8-6.4 12.8-12.8V108.8c0-6.4-6.4-12.8-12.8-12.8h-38.4c-6.4 0-12.8 6.4-12.8 12.8v198.4c0 6.4 6.4 12.8 12.8 12.8zM496 384H64V80c0-8.84-7.16-16-16-16H16C7.16 64 0 71.16 0 80v336c0 17.67 14.33 32 32 32h464c8.84 0 16-7.16 16-16v-32c0-8.84-7.16-16-16-16z"></path></svg>
<text x="155.333" y="231" font-family="Vazirmatn, Tahoma, sans-serif" font-size="16" fill="#3C4A5E" font-weight="600" text-anchor="middle" direction="rtl">سنجش رشد آشنایی</text>
</svg>